<mxfile host="Electron" agent="Mozilla/5.0 (Windows NT 10.0; Win64; x64) AppleWebKit/537.36 (KHTML, like Gecko) draw.io/26.0.9 Chrome/128.0.6613.186 Electron/32.2.5 Safari/537.36" version="26.0.9">
  <diagram name="Page-1" id="Z3QlNULhrAS1J_aLYuIl">
    <mxGraphModel dx="875" dy="518" grid="1" gridSize="10" guides="1" tooltips="1" connect="1" arrows="1" fold="1" page="1" pageScale="1" pageWidth="827" pageHeight="1169" math="0" shadow="0">
      <root>
        <mxCell id="0" />
        <mxCell id="1" parent="0" />
        <mxCell id="c20M6e9Oga_1M4jsr-Ft-2" value="&lt;div&gt;&lt;span style=&quot;font-weight: 400;&quot;&gt;«layer»&lt;/span&gt;&lt;br&gt;&lt;/div&gt;Presentation" style="shape=folder;fontStyle=1;tabWidth=110;tabHeight=30;tabPosition=left;html=1;boundedLbl=1;labelInHeader=1;container=1;collapsible=0;whiteSpace=wrap;" vertex="1" parent="1">
          <mxGeometry x="160" y="100" width="230" height="110" as="geometry" />
        </mxCell>
        <mxCell id="c20M6e9Oga_1M4jsr-Ft-3" value="" style="html=1;strokeColor=none;resizeWidth=1;resizeHeight=1;fillColor=none;part=1;connectable=0;allowArrows=0;deletable=0;whiteSpace=wrap;" vertex="1" parent="c20M6e9Oga_1M4jsr-Ft-2">
          <mxGeometry width="230" height="80" relative="1" as="geometry">
            <mxPoint y="30" as="offset" />
          </mxGeometry>
        </mxCell>
        <mxCell id="c20M6e9Oga_1M4jsr-Ft-21" value="&lt;div&gt;&lt;/div&gt;" style="shape=folder;fontStyle=1;tabWidth=40;tabHeight=10;tabPosition=left;html=1;boundedLbl=1;labelInHeader=1;container=1;collapsible=0;whiteSpace=wrap;" vertex="1" parent="c20M6e9Oga_1M4jsr-Ft-2">
          <mxGeometry x="120" y="40" width="100" height="60" as="geometry" />
        </mxCell>
        <mxCell id="c20M6e9Oga_1M4jsr-Ft-22" value="&lt;div style=&quot;font-weight: 700;&quot;&gt;&lt;span style=&quot;background-color: transparent; color: light-dark(rgb(0, 0, 0), rgb(255, 255, 255));&quot;&gt;API endpoints&lt;/span&gt;&lt;br&gt;&lt;/div&gt;" style="html=1;strokeColor=none;resizeWidth=1;resizeHeight=1;fillColor=none;part=1;connectable=0;allowArrows=0;deletable=0;whiteSpace=wrap;" vertex="1" parent="c20M6e9Oga_1M4jsr-Ft-21">
          <mxGeometry width="100" height="50" relative="1" as="geometry">
            <mxPoint y="10" as="offset" />
          </mxGeometry>
        </mxCell>
        <mxCell id="c20M6e9Oga_1M4jsr-Ft-19" value="&lt;div&gt;&lt;/div&gt;" style="shape=folder;fontStyle=1;tabWidth=40;tabHeight=10;tabPosition=left;html=1;boundedLbl=1;labelInHeader=1;container=1;collapsible=0;whiteSpace=wrap;" vertex="1" parent="c20M6e9Oga_1M4jsr-Ft-2">
          <mxGeometry x="10" y="40" width="100" height="60" as="geometry" />
        </mxCell>
        <mxCell id="c20M6e9Oga_1M4jsr-Ft-20" value="&lt;div style=&quot;font-weight: 700;&quot;&gt;&lt;span style=&quot;background-color: transparent; color: light-dark(rgb(0, 0, 0), rgb(255, 255, 255));&quot;&gt;Middleware&lt;/span&gt;&lt;br&gt;&lt;/div&gt;" style="html=1;strokeColor=none;resizeWidth=1;resizeHeight=1;fillColor=none;part=1;connectable=0;allowArrows=0;deletable=0;whiteSpace=wrap;" vertex="1" parent="c20M6e9Oga_1M4jsr-Ft-19">
          <mxGeometry width="100" height="50" relative="1" as="geometry">
            <mxPoint y="10" as="offset" />
          </mxGeometry>
        </mxCell>
        <mxCell id="c20M6e9Oga_1M4jsr-Ft-5" value="&lt;div&gt;&lt;/div&gt;" style="shape=folder;fontStyle=1;tabWidth=40;tabHeight=10;tabPosition=left;html=1;boundedLbl=1;labelInHeader=1;container=1;collapsible=0;whiteSpace=wrap;" vertex="1" parent="1">
          <mxGeometry x="200" y="240" width="150" height="60" as="geometry" />
        </mxCell>
        <mxCell id="c20M6e9Oga_1M4jsr-Ft-6" value="&lt;div style=&quot;font-weight: 700;&quot;&gt;&lt;span style=&quot;font-weight: 400;&quot;&gt;«layer»&lt;/span&gt;&lt;br&gt;&lt;/div&gt;&lt;span style=&quot;font-weight: 700;&quot;&gt;Domain/application&lt;/span&gt;" style="html=1;strokeColor=none;resizeWidth=1;resizeHeight=1;fillColor=none;part=1;connectable=0;allowArrows=0;deletable=0;whiteSpace=wrap;" vertex="1" parent="c20M6e9Oga_1M4jsr-Ft-5">
          <mxGeometry width="150" height="50" relative="1" as="geometry">
            <mxPoint y="10" as="offset" />
          </mxGeometry>
        </mxCell>
        <mxCell id="c20M6e9Oga_1M4jsr-Ft-7" value="&lt;div&gt;&lt;/div&gt;" style="shape=folder;fontStyle=1;tabWidth=40;tabHeight=10;tabPosition=left;html=1;boundedLbl=1;labelInHeader=1;container=1;collapsible=0;whiteSpace=wrap;" vertex="1" parent="1">
          <mxGeometry x="200" y="330" width="150" height="60" as="geometry" />
        </mxCell>
        <mxCell id="c20M6e9Oga_1M4jsr-Ft-8" value="&lt;div style=&quot;font-weight: 700;&quot;&gt;&lt;span style=&quot;font-weight: 400;&quot;&gt;«layer»&lt;/span&gt;&lt;br&gt;&lt;/div&gt;&lt;b&gt;Infrastructure&lt;/b&gt;" style="html=1;strokeColor=none;resizeWidth=1;resizeHeight=1;fillColor=none;part=1;connectable=0;allowArrows=0;deletable=0;whiteSpace=wrap;" vertex="1" parent="c20M6e9Oga_1M4jsr-Ft-7">
          <mxGeometry width="150" height="50" relative="1" as="geometry">
            <mxPoint y="10" as="offset" />
          </mxGeometry>
        </mxCell>
        <mxCell id="c20M6e9Oga_1M4jsr-Ft-9" value="&lt;div&gt;&lt;/div&gt;" style="shape=folder;fontStyle=1;tabWidth=40;tabHeight=10;tabPosition=left;html=1;boundedLbl=1;labelInHeader=1;container=1;collapsible=0;whiteSpace=wrap;" vertex="1" parent="1">
          <mxGeometry x="10" y="120" width="100" height="60" as="geometry" />
        </mxCell>
        <mxCell id="c20M6e9Oga_1M4jsr-Ft-10" value="&lt;div style=&quot;font-weight: 700;&quot;&gt;&lt;span style=&quot;background-color: transparent; color: light-dark(rgb(0, 0, 0), rgb(255, 255, 255));&quot;&gt;Client&lt;/span&gt;&lt;br&gt;&lt;/div&gt;" style="html=1;strokeColor=none;resizeWidth=1;resizeHeight=1;fillColor=none;part=1;connectable=0;allowArrows=0;deletable=0;whiteSpace=wrap;" vertex="1" parent="c20M6e9Oga_1M4jsr-Ft-9">
          <mxGeometry width="100" height="50" relative="1" as="geometry">
            <mxPoint y="10" as="offset" />
          </mxGeometry>
        </mxCell>
        <mxCell id="c20M6e9Oga_1M4jsr-Ft-11" value="&lt;div&gt;&lt;span style=&quot;font-weight: 400;&quot;&gt;«layer»&lt;/span&gt;&lt;br&gt;&lt;/div&gt;Platform" style="shape=folder;fontStyle=1;tabWidth=110;tabHeight=30;tabPosition=left;html=1;boundedLbl=1;labelInHeader=1;container=1;collapsible=0;whiteSpace=wrap;" vertex="1" parent="1">
          <mxGeometry x="440" y="100" width="150" height="250" as="geometry" />
        </mxCell>
        <mxCell id="c20M6e9Oga_1M4jsr-Ft-12" value="" style="html=1;strokeColor=none;resizeWidth=1;resizeHeight=1;fillColor=none;part=1;connectable=0;allowArrows=0;deletable=0;whiteSpace=wrap;" vertex="1" parent="c20M6e9Oga_1M4jsr-Ft-11">
          <mxGeometry width="150" height="196.80851063829786" relative="1" as="geometry">
            <mxPoint y="30" as="offset" />
          </mxGeometry>
        </mxCell>
        <mxCell id="c20M6e9Oga_1M4jsr-Ft-13" value="&lt;div&gt;&lt;/div&gt;" style="shape=folder;fontStyle=1;tabWidth=40;tabHeight=10;tabPosition=left;html=1;boundedLbl=1;labelInHeader=1;container=1;collapsible=0;whiteSpace=wrap;" vertex="1" parent="c20M6e9Oga_1M4jsr-Ft-11">
          <mxGeometry x="25" y="40" width="100" height="60" as="geometry" />
        </mxCell>
        <mxCell id="c20M6e9Oga_1M4jsr-Ft-14" value="&lt;div style=&quot;font-weight: 700;&quot;&gt;&lt;span style=&quot;background-color: transparent; color: light-dark(rgb(0, 0, 0), rgb(255, 255, 255));&quot;&gt;ASP.NET Core&lt;/span&gt;&lt;br&gt;&lt;/div&gt;" style="html=1;strokeColor=none;resizeWidth=1;resizeHeight=1;fillColor=none;part=1;connectable=0;allowArrows=0;deletable=0;whiteSpace=wrap;" vertex="1" parent="c20M6e9Oga_1M4jsr-Ft-13">
          <mxGeometry width="100" height="50" relative="1" as="geometry">
            <mxPoint y="10" as="offset" />
          </mxGeometry>
        </mxCell>
        <mxCell id="c20M6e9Oga_1M4jsr-Ft-15" value="&lt;div&gt;&lt;/div&gt;" style="shape=folder;fontStyle=1;tabWidth=40;tabHeight=10;tabPosition=left;html=1;boundedLbl=1;labelInHeader=1;container=1;collapsible=0;whiteSpace=wrap;" vertex="1" parent="c20M6e9Oga_1M4jsr-Ft-11">
          <mxGeometry x="25" y="110" width="100" height="60" as="geometry" />
        </mxCell>
        <mxCell id="c20M6e9Oga_1M4jsr-Ft-16" value="&lt;div style=&quot;font-weight: 700;&quot;&gt;&lt;span style=&quot;background-color: transparent; color: light-dark(rgb(0, 0, 0), rgb(255, 255, 255));&quot;&gt;EF Core&lt;/span&gt;&lt;br&gt;&lt;/div&gt;" style="html=1;strokeColor=none;resizeWidth=1;resizeHeight=1;fillColor=none;part=1;connectable=0;allowArrows=0;deletable=0;whiteSpace=wrap;" vertex="1" parent="c20M6e9Oga_1M4jsr-Ft-15">
          <mxGeometry width="100" height="50" relative="1" as="geometry">
            <mxPoint y="10" as="offset" />
          </mxGeometry>
        </mxCell>
        <mxCell id="c20M6e9Oga_1M4jsr-Ft-17" value="&lt;div&gt;&lt;/div&gt;" style="shape=folder;fontStyle=1;tabWidth=40;tabHeight=10;tabPosition=left;html=1;boundedLbl=1;labelInHeader=1;container=1;collapsible=0;whiteSpace=wrap;" vertex="1" parent="c20M6e9Oga_1M4jsr-Ft-11">
          <mxGeometry x="25" y="180" width="100" height="60" as="geometry" />
        </mxCell>
        <mxCell id="c20M6e9Oga_1M4jsr-Ft-18" value="&lt;div style=&quot;font-weight: 700;&quot;&gt;&lt;span style=&quot;background-color: transparent; color: light-dark(rgb(0, 0, 0), rgb(255, 255, 255));&quot;&gt;.NET BCL&lt;/span&gt;&lt;br&gt;&lt;/div&gt;" style="html=1;strokeColor=none;resizeWidth=1;resizeHeight=1;fillColor=none;part=1;connectable=0;allowArrows=0;deletable=0;whiteSpace=wrap;" vertex="1" parent="c20M6e9Oga_1M4jsr-Ft-17">
          <mxGeometry width="100" height="50" relative="1" as="geometry">
            <mxPoint y="10" as="offset" />
          </mxGeometry>
        </mxCell>
        <mxCell id="c20M6e9Oga_1M4jsr-Ft-23" value="" style="endArrow=open;html=1;rounded=0;align=center;verticalAlign=bottom;dashed=1;endFill=0;labelBackgroundColor=none;exitX=0;exitY=0;exitDx=100;exitDy=35;exitPerimeter=0;" edge="1" parent="1" source="c20M6e9Oga_1M4jsr-Ft-9">
          <mxGeometry relative="1" as="geometry">
            <mxPoint x="100" y="450" as="sourcePoint" />
            <mxPoint x="160" y="155" as="targetPoint" />
          </mxGeometry>
        </mxCell>
        <mxCell id="c20M6e9Oga_1M4jsr-Ft-24" value="" style="resizable=0;html=1;align=center;verticalAlign=top;labelBackgroundColor=none;" connectable="0" vertex="1" parent="c20M6e9Oga_1M4jsr-Ft-23">
          <mxGeometry relative="1" as="geometry" />
        </mxCell>
        <mxCell id="c20M6e9Oga_1M4jsr-Ft-25" value="" style="endArrow=open;html=1;rounded=0;align=center;verticalAlign=bottom;dashed=1;endFill=0;labelBackgroundColor=none;exitX=0;exitY=0;exitDx=100;exitDy=35;exitPerimeter=0;entryX=-0.003;entryY=0.499;entryDx=0;entryDy=0;entryPerimeter=0;" edge="1" parent="1" target="c20M6e9Oga_1M4jsr-Ft-13">
          <mxGeometry relative="1" as="geometry">
            <mxPoint x="390" y="170" as="sourcePoint" />
            <mxPoint x="440" y="170" as="targetPoint" />
          </mxGeometry>
        </mxCell>
        <mxCell id="c20M6e9Oga_1M4jsr-Ft-26" value="" style="resizable=0;html=1;align=center;verticalAlign=top;labelBackgroundColor=none;" connectable="0" vertex="1" parent="c20M6e9Oga_1M4jsr-Ft-25">
          <mxGeometry relative="1" as="geometry" />
        </mxCell>
        <mxCell id="c20M6e9Oga_1M4jsr-Ft-27" value="" style="endArrow=open;html=1;rounded=0;align=center;verticalAlign=bottom;dashed=1;endFill=0;labelBackgroundColor=none;exitX=0.5;exitY=1;exitDx=0;exitDy=0;exitPerimeter=0;entryX=0.504;entryY=0.168;entryDx=0;entryDy=0;entryPerimeter=0;" edge="1" parent="1" source="c20M6e9Oga_1M4jsr-Ft-2" target="c20M6e9Oga_1M4jsr-Ft-5">
          <mxGeometry relative="1" as="geometry">
            <mxPoint x="280" y="224.86" as="sourcePoint" />
            <mxPoint x="270" y="240" as="targetPoint" />
          </mxGeometry>
        </mxCell>
        <mxCell id="c20M6e9Oga_1M4jsr-Ft-28" value="" style="resizable=0;html=1;align=center;verticalAlign=top;labelBackgroundColor=none;" connectable="0" vertex="1" parent="c20M6e9Oga_1M4jsr-Ft-27">
          <mxGeometry relative="1" as="geometry" />
        </mxCell>
        <mxCell id="c20M6e9Oga_1M4jsr-Ft-29" value="" style="endArrow=open;html=1;rounded=0;align=center;verticalAlign=bottom;dashed=1;endFill=0;labelBackgroundColor=none;entryX=0.569;entryY=0.158;entryDx=0;entryDy=0;entryPerimeter=0;" edge="1" parent="1">
          <mxGeometry relative="1" as="geometry">
            <mxPoint x="275" y="339.0000000000001" as="sourcePoint" />
            <mxPoint x="274.89" y="300.0000000000001" as="targetPoint" />
          </mxGeometry>
        </mxCell>
        <mxCell id="c20M6e9Oga_1M4jsr-Ft-30" value="" style="resizable=0;html=1;align=center;verticalAlign=top;labelBackgroundColor=none;" connectable="0" vertex="1" parent="c20M6e9Oga_1M4jsr-Ft-29">
          <mxGeometry relative="1" as="geometry" />
        </mxCell>
        <mxCell id="c20M6e9Oga_1M4jsr-Ft-31" value="" style="endArrow=open;html=1;rounded=0;align=center;verticalAlign=bottom;dashed=1;endFill=0;labelBackgroundColor=none;entryX=0;entryY=0;entryDx=0;entryDy=35;entryPerimeter=0;exitX=0;exitY=0;exitDx=150;exitDy=35;exitPerimeter=0;" edge="1" parent="1" source="c20M6e9Oga_1M4jsr-Ft-7" target="c20M6e9Oga_1M4jsr-Ft-15">
          <mxGeometry relative="1" as="geometry">
            <mxPoint x="390.11" y="369.0000000000001" as="sourcePoint" />
            <mxPoint x="390" y="330.0000000000001" as="targetPoint" />
          </mxGeometry>
        </mxCell>
        <mxCell id="c20M6e9Oga_1M4jsr-Ft-32" value="" style="resizable=0;html=1;align=center;verticalAlign=top;labelBackgroundColor=none;" connectable="0" vertex="1" parent="c20M6e9Oga_1M4jsr-Ft-31">
          <mxGeometry relative="1" as="geometry" />
        </mxCell>
        <mxCell id="c20M6e9Oga_1M4jsr-Ft-36" value="Every package apart from Client depends on .NET BCL." style="shape=note;size=15;align=left;spacingLeft=10;html=1;whiteSpace=wrap;fontSize=10;" vertex="1" parent="1">
          <mxGeometry x="330" y="400" width="180" height="40" as="geometry" />
        </mxCell>
        <mxCell id="c20M6e9Oga_1M4jsr-Ft-38" value="" style="edgeStyle=none;endArrow=none;exitX=0.8;exitY=0;dashed=1;html=1;rounded=0;entryX=0.25;entryY=1;entryDx=0;entryDy=0;entryPerimeter=0;" edge="1" source="c20M6e9Oga_1M4jsr-Ft-36" parent="1" target="c20M6e9Oga_1M4jsr-Ft-17">
          <mxGeometry x="1" relative="1" as="geometry">
            <mxPoint x="580" y="380" as="targetPoint" />
          </mxGeometry>
        </mxCell>
      </root>
    </mxGraphModel>
  </diagram>
</mxfile>
